<svg width="18" height="18" viewBox="0 0 18 18" fill="none" xmlns="http://www.w3.org/2000/svg">
<g id="Frame" clip-path="url(#clip0_1_873)">
<path id="Vector" d="M4.26794 13.3792C3.42851 13.4693 2.6285 13.5548 1.82849 13.641C1.47887 13.6787 1.22383 13.5627 1.09097 13.3043C0.942901 13.0167 1.01496 12.7667 1.2137 12.5303C1.73165 11.9128 2.2406 11.2885 2.76362 10.6755C2.8886 10.5291 2.86327 10.4841 2.69719 10.4132C1.96811 10.1013 1.24804 9.76862 0.518405 9.45958C0.203692 9.32617 -0.0119343 9.1314 0.00157751 8.77563C0.0150893 8.41761 0.254361 8.24479 0.572452 8.13277C1.29365 7.87946 2.00808 7.60644 2.72759 7.34975C2.90775 7.28557 2.96067 7.2366 2.82104 7.05365C2.33856 6.42149 1.87578 5.77413 1.40737 5.13127C1.18668 4.82842 1.16247 4.55259 1.3263 4.30096C1.49351 4.0437 1.73447 3.97109 2.1128 4.0392C2.88523 4.17824 3.65934 4.30771 4.43233 4.44282C4.58377 4.46927 4.64683 4.44225 4.62487 4.26099C4.52973 3.46221 4.45035 2.66117 4.36421 1.86069C4.32311 1.48016 4.42951 1.23247 4.69525 1.09512C5.00883 0.932996 5.26556 1.04108 5.51384 1.25105C6.11455 1.75937 6.72652 2.25474 7.32499 2.76587C7.47024 2.88971 7.51584 2.86776 7.58678 2.70114C7.90205 1.96371 8.22915 1.23078 8.554 0.497295C8.70995 0.146031 8.93008 -0.0200308 9.22452 0.00192318C9.56682 0.0278176 9.74754 0.237225 9.85733 0.548521C10.1152 1.27807 10.3916 2.00086 10.6523 2.72984C10.7165 2.90942 10.7626 2.96571 10.9467 2.82498C11.579 2.34255 12.2258 1.87983 12.8688 1.41148C13.1717 1.19081 13.447 1.16605 13.6986 1.32873C13.957 1.49648 14.0297 1.73629 13.9615 2.11457C13.8225 2.8869 13.693 3.66148 13.5579 4.43437C13.5314 4.58411 13.5545 4.64997 13.738 4.62858C14.5465 4.53176 15.3566 4.45126 16.1662 4.36401C16.5187 4.32629 16.7709 4.43944 16.9049 4.69782C17.0603 4.99786 16.973 5.25117 16.7675 5.49435C16.2597 6.09556 15.7631 6.70633 15.2519 7.30528C15.1185 7.46177 15.1337 7.51975 15.3251 7.60081C16.0553 7.90985 16.7782 8.23579 17.5028 8.55778C17.8558 8.71483 18.0196 8.93212 17.9982 9.22822C17.9734 9.57104 17.7629 9.7523 17.4527 9.86263C16.7236 10.1216 16.0001 10.3968 15.2716 10.6575C15.092 10.7217 15.0363 10.7678 15.177 10.9519C15.6595 11.584 16.1223 12.2314 16.5907 12.8743C16.8108 13.1766 16.8351 13.4524 16.6707 13.7046C16.5029 13.9624 16.2642 14.0344 15.8842 13.9663C15.1117 13.8273 14.3376 13.6984 13.5646 13.5622C13.4104 13.5351 13.3513 13.565 13.3727 13.7445C13.4672 14.5439 13.5472 15.3444 13.6333 16.1448C13.6739 16.5231 13.5658 16.7736 13.3017 16.9104C12.9876 17.0731 12.7314 16.9639 12.4831 16.7539C11.8903 16.2507 11.2862 15.7609 10.6951 15.2549C10.5346 15.1175 10.4794 15.1445 10.4001 15.3314C10.0938 16.0525 9.76218 16.7629 9.45591 17.484C9.32248 17.7987 9.12769 18.0143 8.77131 18.0002C8.41325 17.9862 8.24041 17.7469 8.12838 17.4294C7.87447 16.7083 7.60029 15.9945 7.34413 15.2746C7.27826 15.0899 7.22928 15.0455 7.04856 15.1828C6.41575 15.6647 5.76887 16.128 5.12594 16.5957C4.82474 16.8153 4.54662 16.8395 4.29552 16.6746C4.03767 16.5057 3.96617 16.2681 4.03486 15.8876C4.17279 15.1243 4.30171 14.3598 4.43402 13.5954C4.46329 13.4299 4.46555 13.2897 4.26794 13.3792ZM5.00433 7.91999C4.97787 8.18175 5.02572 8.45701 5.11299 8.72665C5.32298 9.37458 5.83756 9.78551 6.48894 9.8266C7.10317 9.86545 7.66672 9.50067 7.93696 8.87189C8.21902 8.2144 8.22014 7.53889 7.97693 6.87577C7.76581 6.29877 7.33456 5.9644 6.71189 5.92105C6.1078 5.87939 5.63657 6.12989 5.31623 6.6399C5.07639 7.021 4.97336 7.44488 5.00433 7.91999ZM12.9938 10.0546C13.0152 9.772 12.9814 9.48604 12.8868 9.20739C12.6948 8.64109 12.3334 8.25267 11.7242 8.16655C11.0728 8.07423 10.5279 8.29095 10.1901 8.8657C9.76612 9.58849 9.75205 10.3625 10.0679 11.1292C10.3004 11.6933 10.7373 12.0203 11.3611 12.0462C12.0209 12.0732 12.4831 11.7524 12.7759 11.1782C12.9527 10.8303 13.0208 10.4548 12.9938 10.0546ZM6.65728 12.0907C7.00295 12.0907 7.29289 12.0777 7.58058 12.0952C7.76862 12.1064 7.85758 12.0333 7.94709 11.8734C9.02072 9.97071 10.1045 8.07366 11.1815 6.17324C11.2243 6.09781 11.3087 6.03082 11.2783 5.91261C10.9794 5.91261 10.6804 5.92218 10.3826 5.90867C10.2188 5.90135 10.1366 5.96158 10.0566 6.10344C9.40862 7.25968 8.75048 8.41085 8.09516 9.56372C7.62619 10.3901 7.15552 11.2153 6.65728 12.0907Z" fill="#283761"/>
<path id="Vector_2" d="M6.17669 7.95481C6.17331 7.66828 6.19527 7.41834 6.30561 7.18585C6.35854 7.07496 6.42328 6.97363 6.57247 6.97363C6.71998 6.97363 6.80161 7.06989 6.84215 7.18248C7.00879 7.64632 7.01048 8.11468 6.82976 8.57627C6.78416 8.69223 6.69802 8.7778 6.55333 8.77611C6.39851 8.77386 6.30956 8.67929 6.25832 8.55488C6.17613 8.35336 6.16768 8.13776 6.17669 7.95481Z" fill="#283761"/>
<path id="Vector_3" d="M11.8267 10.1643C11.8306 10.3428 11.821 10.5499 11.749 10.7453C11.6944 10.8933 11.5885 11.0093 11.4179 11.0037C11.258 10.9986 11.173 10.8821 11.1263 10.7396C10.9884 10.3146 11.0053 9.88907 11.1466 9.47082C11.1944 9.32897 11.2839 9.18317 11.4607 9.19612C11.629 9.2085 11.7107 9.34585 11.7563 9.49672C11.8182 9.705 11.8323 9.91947 11.8267 10.1643Z" fill="#283761"/>
</g>
<defs>
<clipPath id="clip0_1_873">
<rect width="18" height="18" fill="white"/>
</clipPath>
</defs>
</svg>
