<svg width="25" height="18" viewBox="0 0 25 18" xmlns="http://www.w3.org/2000/svg">
<g id="Frame" clip-path="url(#clip0_466_9428)">
<path id="Vector" d="M7.04471 5.37515C10.715 5.37515 14.3087 5.37515 17.9629 5.37515C17.1068 4.08338 16.2792 2.83156 15.4488 1.58184C15.2804 1.32881 15.1279 1.07228 15.1941 0.750566C15.2734 0.362263 15.5066 0.100825 15.8915 0.0216224C16.2966 -0.0624865 16.6196 0.102928 16.8472 0.445671C17.466 1.37788 18.082 2.31219 18.6987 3.2458C19.11 3.8682 19.5311 4.4843 19.9272 5.11582C20.0636 5.3338 20.2174 5.40249 20.4659 5.39968C21.6262 5.38707 22.7873 5.39197 23.9476 5.39478C24.5907 5.39618 25 5.74874 25 6.29264C25 6.83724 24.5921 7.1863 23.949 7.1926C23.1958 7.20031 23.1687 7.19751 23.1005 7.90683C22.9467 9.51541 22.8241 11.1275 22.6849 12.7382C22.6014 13.7068 22.5381 14.6783 22.417 15.6427C22.2429 17.0354 21.1397 17.9775 19.7093 17.981C16.5548 17.9873 13.401 17.9831 10.2465 17.9831C8.68461 17.9831 7.11989 17.934 5.56074 17.9971C4.10391 18.056 2.62619 17.1917 2.49046 15.1129C2.32341 12.5595 2.0784 10.011 1.87794 7.45965C1.86054 7.24097 1.79302 7.17578 1.58769 7.1898C1.36565 7.20452 1.14152 7.20031 0.918786 7.1912C0.382132 7.16947 0.000697018 6.79309 9.68694e-07 6.29474C-0.00069508 5.79079 0.373779 5.40459 0.916002 5.39898C2.09093 5.38707 3.26726 5.38356 4.44219 5.40249C4.75819 5.40739 4.94265 5.32048 5.12083 5.04502C6.10853 3.51635 7.12267 2.00519 8.12498 0.485623C8.36094 0.127459 8.67904 -0.0645892 9.10572 0.0209215C9.48924 0.0980213 9.72659 0.356656 9.80594 0.74636C9.86719 1.04845 9.74121 1.29868 9.57973 1.54119C8.77857 2.74605 7.9809 3.95301 7.18184 5.15927C7.14286 5.21745 7.10666 5.27703 7.04471 5.37515ZM11.6602 15.286C12.0291 15.253 12.357 15.0848 12.5818 14.7288C12.8915 14.2381 13.2068 13.7503 13.5194 13.2611C14.2962 12.0429 15.0723 10.8233 15.8497 9.60513C16.078 9.24766 16.1233 8.88249 15.8811 8.51592C15.6806 8.21242 15.3876 8.11079 15.0333 8.14584C14.7235 8.17668 14.5286 8.36873 14.3498 8.59722C13.4386 9.75863 12.5177 10.9116 11.6185 12.0814C11.4284 12.3289 11.2997 12.3366 11.063 12.1508C10.5598 11.7562 10.037 11.3868 9.51499 11.0189C9.04864 10.6901 8.5628 10.7357 8.23844 11.1219C7.93148 11.4871 7.95793 11.9875 8.32962 12.3744C9.14539 13.2239 9.9716 14.0622 10.7915 14.9075C11.0199 15.1423 11.2941 15.2692 11.6602 15.286Z"/>
</g>
<defs>
<clipPath id="clip0_466_9428">
<rect width="25" height="18" fill="white"/>
</clipPath>
</defs>
</svg>
