<svg width="240" height="20" viewBox="0 0 240 20" fill="none" xmlns="http://www.w3.org/2000/svg">
<g id="Logo" clip-path="url(#clip0_1_329)">
<path id="Vector" d="M239.999 0L238.588 5.18971L225.212 14.5788H236.039L234.582 19.9936H215.906L217.363 14.5788L230.733 5.16399H220.231L221.635 0H239.999Z" fill="white"/>
<path id="Vector_2" d="M219.419 0L213.995 19.9936H207.648L213.072 0H219.419Z" fill="white"/>
<path id="Vector_3" d="M203.097 5.16399H196.107L195.378 7.8328H202.369L203.097 5.16399ZM201.302 11.8264H194.312L193.583 14.5209H200.574L201.302 11.8264ZM209.951 2.36013C209.951 2.78457 209.867 3.3119 209.697 3.94212C209.171 5.92283 208.839 7.05466 208.689 7.33119C208.182 8.40514 207.35 9.17042 206.192 9.63344C207.038 10.0772 207.454 10.7524 207.454 11.6592C207.454 12.0322 207.389 12.4566 207.259 12.9389L206.557 15.492C206.127 17.0289 205.51 18.1479 204.703 18.8553C203.845 19.6142 202.622 19.9936 201.055 19.9936H185.832L191.249 0H206.524C208.813 0 209.951 0.784565 209.951 2.36013Z" fill="white"/>
<path id="Vector_4" d="M170.772 4.93891H163.807L162.994 7.99357H169.959L170.772 4.93891ZM178.471 0L173.048 19.9936H166.785L168.951 11.9936H161.986L159.821 19.9936H153.559L157.629 4.93891C158.156 2.99679 159.06 1.65273 160.354 0.913182C161.44 0.30225 163.066 0 165.238 0H178.471Z" fill="white"/>
<path id="Vector_5" d="M156.901 0L148.506 7.8328C151.875 7.8328 153.559 9.04823 153.559 11.4727C153.559 12.0643 153.455 12.7395 153.247 13.4984L151.478 20H145.216L147.433 11.8328H140.443L138.225 20H131.963L137.38 0.00643102H143.642L141.509 7.83923H142.237L150.633 0.00643102H156.901V0Z" fill="white"/>
<path id="Vector_6" d="M134.939 0L129.523 19.9936H123.176L128.593 0H134.939Z" fill="white"/>
<path id="Vector_7" d="M126.773 0L125.368 5.16399H119.19L115.172 19.9936H108.825L112.844 5.16399H106.666L108.064 0H126.773Z" fill="white"/>
<path id="Vector_8" d="M106.327 0L100.904 19.9936H93.7701L90.2065 9.74277L87.4233 19.9936H81.3887L86.8055 0H93.9391L97.5092 10.2444L100.286 0H106.327Z" fill="white"/>
<path id="Vector_9" d="M76.8379 4.93891H69.8734L69.0605 7.99357H76.0251L76.8379 4.93891ZM84.4527 0L79.0359 19.9936H72.7736L74.9391 11.9936H67.9745L65.8091 19.9936H59.5469L63.6177 4.93891C64.1444 2.99679 65.0483 1.65273 66.3423 0.913182C67.4283 0.30225 69.054 0 71.226 0H84.4527Z" fill="white"/>
<path id="Vector_10" d="M59.3115 14.5788L57.8548 19.9936H41.6758L47.0991 0H53.4459L49.4857 14.5788H59.3115Z" fill="white"/>
<path id="Vector_11" d="M45.3568 0L43.9521 5.16399H37.7745L33.7622 19.9936H27.4154L31.4277 5.16399H25.25L26.6546 0H45.3568Z" fill="white"/>
<path id="Vector_12" d="M17.304 4.93891H10.3395L9.52664 7.99357H16.4912L17.304 4.93891ZM24.9123 0L19.4955 19.9936H13.2333L15.3987 11.9936H8.42767L6.26222 19.9936H0L4.07077 4.93891C4.5975 2.99679 5.50139 1.65273 6.79546 0.913182C7.88143 0.30225 9.50714 0 11.6791 0H24.9123Z" fill="white"/>
<path id="Vector_13" d="M183.861 14.4375L182.345 19.9938H176.525L178.047 14.4375H183.861Z" fill="#01A0C6"/>
</g>
<defs>
<clipPath id="clip0_1_329">
<rect width="240" height="20" fill="white"/>
</clipPath>
</defs>
</svg>
