<svg width="12" height="12" viewBox="0 0 12 12" fill="none" xmlns="http://www.w3.org/2000/svg">
<path id="Vector" d="M0.775222 0.00488472C0.451648 0.0116415 0.215436 0.162903 0.0804572 0.455292C-0.0590207 0.757065 -0.0177772 1.04983 0.209062 1.28892C0.600125 1.70104 1.00694 2.09853 1.4085 2.50089C2.52507 3.61978 3.63977 4.74016 4.76271 5.85267C4.89094 5.97991 4.87032 6.04146 4.75559 6.15519C3.26445 7.64116 1.77706 9.13088 0.289674 10.6202C-0.0368992 10.9471 -0.0860164 11.3563 0.15732 11.6839C0.447899 12.075 0.982939 12.1099 1.35226 11.7508C1.73732 11.3762 2.11301 10.9918 2.49282 10.612C3.61427 9.48933 4.73759 8.36819 5.85492 7.2418C5.96552 7.12995 6.02326 7.11418 6.14474 7.23617C7.62351 8.72627 9.10977 10.2085 10.5912 11.696C10.7861 11.8919 11.0028 12.0236 11.2859 11.9962C11.6069 11.9654 11.8375 11.792 11.9477 11.4914C12.0609 11.1829 11.9901 10.8995 11.7569 10.6649C11.1356 10.0407 10.5124 9.41802 9.89003 8.79495C9.00292 7.90653 8.11731 7.0166 7.2257 6.13267C7.12184 6.02945 7.11997 5.97503 7.22457 5.87106C8.71159 4.3896 10.193 2.90213 11.6789 1.41954C11.8937 1.20522 12.0403 0.969131 11.9859 0.655348C11.9338 0.355076 11.7621 0.138505 11.4704 0.0442953C11.1678 -0.0532932 10.8911 0.00976467 10.6617 0.239472C10.0434 0.857656 9.4251 1.47621 8.8072 2.09515C7.92009 2.98358 7.03073 3.87013 6.14849 4.76343C6.03601 4.87716 5.97902 4.88805 5.85904 4.76719C4.37653 3.27296 2.88689 1.78549 1.40062 0.294647C1.2259 0.118988 1.03506 -0.00825214 0.775222 0.00488472Z" fill="#AD2808"/>
</svg>
