<svg width="238" height="18" viewBox="0 0 238 18" fill="none" xmlns="http://www.w3.org/2000/svg">
<g id="Frame" clip-path="url(#clip0_706_5865)">
<path id="Vector" d="M237.131 0L235.891 4.67224L224.133 13.1251H233.652L232.366 18H215.957L217.243 13.1251L228.989 4.64908H219.762L220.991 0H237.131Z" fill="white"/>
<path id="Vector_2" d="M219.043 0L214.283 18H208.707L213.466 0H219.043Z" fill="white"/>
<path id="Vector_3" d="M204.706 4.64908H198.564L197.924 7.05179H204.066L204.706 4.64908ZM203.129 10.6529H196.987L196.348 13.0788H202.489L203.129 10.6529ZM210.728 2.1248C210.728 2.50692 210.654 2.98167 210.505 3.54905C210.043 5.33226 209.751 6.35124 209.62 6.60019C209.174 7.56706 208.443 8.25603 207.426 8.67288C208.169 9.07237 208.534 9.68028 208.534 10.4966C208.534 10.8324 208.477 11.2145 208.363 11.6488L207.746 13.9473C207.369 15.331 206.826 16.3384 206.118 16.9752C205.363 17.6584 204.289 18 202.912 18H189.537L194.296 0H207.717C209.723 0 210.728 0.706336 210.728 2.1248Z" fill="white"/>
<path id="Vector_4" d="M176.299 4.45217H170.18L169.466 7.20225H175.585L176.299 4.45217ZM183.07 -6.97328e-05L178.305 17.9999H172.803L174.705 10.7976H168.586L166.684 17.9999H161.182L164.758 4.44638C165.221 2.6979 166.015 1.48787 167.152 0.822059C168.106 0.272043 169.535 -0.00585938 171.443 -0.00585938H183.07V-6.97328e-05Z" fill="white"/>
<path id="Vector_5" d="M164.118 0L156.742 7.05178C159.702 7.05178 161.181 8.14603 161.181 10.3287C161.181 10.8614 161.09 11.4693 160.907 12.1525L159.353 18.0058H153.851L155.799 10.6529H149.657L147.709 18.0058H142.207L146.972 0H152.474L150.6 7.05178H151.24L158.616 0H164.118Z" fill="white"/>
<path id="Vector_6" d="M144.824 0L140.065 18H134.488L139.248 0H144.824Z" fill="white"/>
<path id="Vector_7" d="M137.643 0L136.414 4.64908H130.981L127.455 18H121.879L125.404 4.64908H119.977L121.211 0H137.643Z" fill="white"/>
<path id="Vector_8" d="M119.684 0L114.919 18H108.652L105.521 8.7771L103.076 18H97.7734L102.533 0H108.8L111.937 9.22869L114.377 0H119.684Z" fill="white"/>
<path id="Vector_9" d="M93.7739 4.45217H87.6548L86.9406 7.20225H93.0597L93.7739 4.45217ZM100.459 -6.97328e-05L95.6993 17.9999H90.1973L92.0999 10.7976H85.9808L84.0782 17.9999H78.5762L82.1528 4.44638C82.6156 2.6979 83.4097 1.48787 84.5467 0.822059C85.5009 0.272043 86.9292 -0.00585938 88.8375 -0.00585938H100.459V-6.97328e-05Z" fill="white"/>
<path id="Vector_10" d="M78.3776 13.1251L77.0978 18H62.8828L67.6478 0H73.2241L69.7446 13.1251H78.3776Z" fill="white"/>
<path id="Vector_11" d="M66.1152 0L64.8811 4.64908H59.4533L55.9224 18H50.3461L53.877 4.64908H48.4492L49.6833 0H66.1152Z" fill="white"/>
<path id="Vector_12" d="M41.4691 4.45224H35.35L34.6358 7.20232H40.7549L41.4691 4.45224ZM48.1538 0L43.3888 18H37.8868L39.7893 10.7977H33.6702L31.7677 18H26.2656L29.8422 4.44645C30.305 2.69797 31.0992 1.48794 32.2362 0.822129C33.196 0.277903 34.6244 0 36.5327 0H48.1538Z" fill="white"/>
<path id="Vector_13" d="M187.806 13.0039L186.475 18.0004H181.361L182.693 13.0039H187.806Z" fill="#01A0C6"/>
<path id="Vector_14" fill-rule="evenodd" clip-rule="evenodd" d="M2.15397 18.0003L0.697039 15.8756L2.15397 18.0003ZM10.8098 0.0292969H6.35905C5.77057 0.0292969 5.14781 0.515627 4.97069 1.11775L0 18.0003H2.15397H5.60488C6.19336 18.0003 6.81613 17.514 6.99325 16.9119L11.5697 1.11196C11.7411 0.521417 11.3983 0.0292969 10.8098 0.0292969Z" fill="#01A0C6"/>
<path id="Vector_15" fill-rule="evenodd" clip-rule="evenodd" d="M10.1872 18.0003L8.73024 15.8756L10.1872 18.0003ZM18.843 0.0292969H14.3923C13.8038 0.0292969 13.181 0.515627 13.0039 1.11775L8.0332 18.0061H10.1872H13.6381C14.2266 18.0061 14.8493 17.5198 15.0264 16.9177L19.6029 1.11775C19.7743 0.521417 19.4315 0.0292969 18.843 0.0292969Z" fill="white"/>
<path id="Vector_16" fill-rule="evenodd" clip-rule="evenodd" d="M18.2204 18.0003L16.7634 15.8756L18.2204 18.0003ZM26.8762 0.0292969H22.4255C21.837 0.0292969 21.2142 0.515627 21.0371 1.11775L16.0664 18.0061H18.2204H21.6713C22.2598 18.0061 22.8825 17.5198 23.0597 16.9177L27.6361 1.11775C27.8075 0.521417 27.4647 0.0292969 26.8762 0.0292969Z" fill="#01A0C6"/>
</g>
<defs>
<clipPath id="clip0_706_5865">
<rect width="237.13" height="18" fill="white"/>
</clipPath>
</defs>
</svg>
