<svg width="16" height="16" viewBox="0 0 16 16" fill="none" xmlns="http://www.w3.org/2000/svg">
<g id="instagram" clip-path="url(#clip0_754_5829)">
<g id="Group">
<path id="Vector" d="M11.4635 0.385742H5.3083C2.80664 0.385742 0.771484 2.4209 0.771484 4.92256V11.0778C0.771484 13.5794 2.80664 15.6146 5.3083 15.6146H11.4635C13.9652 15.6146 16.0003 13.5794 16.0003 11.0778V4.92256C16.0001 2.4209 13.9649 0.385742 11.4635 0.385742ZM14.4682 11.0778C14.4682 12.7371 13.1228 14.0824 11.4635 14.0824H5.3083C3.649 14.0824 2.30365 12.7371 2.30365 11.0778V4.92256C2.30365 3.26298 3.649 1.91791 5.3083 1.91791H11.4635C13.1228 1.91791 14.4682 3.26326 14.4682 4.92256V11.0778Z" fill="white"/>
<path id="Vector_2" d="M8.38603 4.06152C6.21407 4.06152 4.44727 5.82833 4.44727 8.00028C4.44727 10.1722 6.21407 11.939 8.38603 11.939C10.558 11.939 12.3248 10.1722 12.3248 8.00028C12.3248 5.82833 10.5577 4.06152 8.38603 4.06152ZM8.38603 10.4069C7.05671 10.4069 5.97944 9.32933 5.97944 8.00028C5.97944 6.67124 7.05699 5.59369 8.38603 5.59369C9.71535 5.59369 10.7926 6.67124 10.7926 8.00028C10.7926 9.32933 9.71507 10.4069 8.38603 10.4069Z" fill="white"/>
<path id="Vector_3" d="M12.3325 5.03504C12.8537 5.03504 13.2762 4.61249 13.2762 4.09125C13.2762 3.57001 12.8537 3.14746 12.3325 3.14746C11.8112 3.14746 11.3887 3.57001 11.3887 4.09125C11.3887 4.61249 11.8112 5.03504 12.3325 5.03504Z" fill="white"/>
</g>
</g>
<defs>
<clipPath id="clip0_754_5829">
<rect width="15.2286" height="15.2286" fill="white" transform="translate(0.771484 0.385742)"/>
</clipPath>
</defs>
</svg>
