<svg width="9" height="14" viewBox="0 0 9 14" fill="none" xmlns="http://www.w3.org/2000/svg">
<path id="Vector" d="M4.5 0.5C2.01869 0.5 0 2.61205 0 5.20809C0 8.42986 4.02706 13.1596 4.19851 13.3594C4.35956 13.547 4.64073 13.5467 4.80149 13.3594C4.97294 13.1596 9 8.42986 9 5.20809C8.99995 2.61205 6.98129 0.5 4.5 0.5ZM4.5 7.57686C3.25159 7.57686 2.23596 6.51423 2.23596 5.20809C2.23596 3.90194 3.25161 2.83934 4.5 2.83934C5.74839 2.83934 6.76401 3.90197 6.76401 5.20811C6.76401 6.51426 5.74839 7.57686 4.5 7.57686Z" fill="#01A0C6"/>
</svg>
