<svg width="11" height="16" viewBox="0 0 11 16" fill="none" xmlns="http://www.w3.org/2000/svg">
<path id="Vector" d="M5.25 0.5C2.35513 0.5 0 2.93698 0 5.93241C0 9.64984 4.69824 15.1072 4.89827 15.3377C5.08615 15.5543 5.41419 15.5539 5.60173 15.3377C5.80176 15.1072 10.5 9.64984 10.5 5.93241C10.4999 2.93698 8.14484 0.5 5.25 0.5ZM5.25 8.66561C3.79352 8.66561 2.60862 7.4395 2.60862 5.93241C2.60862 4.42532 3.79355 3.19924 5.25 3.19924C6.70645 3.19924 7.89135 4.42535 7.89135 5.93244C7.89135 7.43953 6.70645 8.66561 5.25 8.66561Z" fill="#01A0C6"/>
</svg>
