<svg width="18" height="18" viewBox="0 0 18 18" fill="none" xmlns="http://www.w3.org/2000/svg">
<g id="telegram" clip-path="url(#clip0_511_2329)">
<path id="Vector" d="M9.0155 7.14074e-06C13.9853 0.00619716 18.0079 4.04546 18 9.02223C17.9921 13.9883 13.9448 18.0118 8.97047 18C4.00459 17.9882 -0.0106725 13.9427 2.13112e-05 8.96315C0.0107152 4.01282 4.05355 -0.00618287 9.0155 7.14074e-06ZM7.3709 12.707C7.36808 12.707 7.36527 12.707 7.36246 12.707C7.36246 12.7537 7.3557 12.8021 7.36414 12.8471C7.3799 12.9309 7.29548 13.0491 7.41705 13.0925C7.50879 13.1251 7.59716 13.0643 7.67089 13.0024C7.72098 12.9602 7.76938 12.9163 7.81666 12.8707C8.1144 12.5854 8.42058 12.308 8.70538 12.0109C8.83708 11.8736 8.92601 11.873 9.07403 11.9844C9.72411 12.4757 10.3809 12.958 11.0395 13.438C11.5032 13.7762 11.8246 13.6512 11.9501 13.0885C12.0435 12.6693 12.1285 12.2478 12.218 11.8274C12.6188 9.94455 13.0206 8.06166 13.4202 6.17877C13.4703 5.94355 13.4883 5.70326 13.2925 5.52206C13.0944 5.33861 12.8737 5.42696 12.6604 5.50912C10.865 6.20296 9.06897 6.89625 7.27353 7.58953C6.19232 8.00707 5.11056 8.4218 4.03217 8.84554C3.85994 8.91306 3.65619 9.00592 3.67533 9.22819C3.69334 9.43415 3.90046 9.48086 4.07044 9.53432C4.68562 9.7279 5.30361 9.91191 5.91428 10.1179C6.13773 10.1933 6.31164 10.1758 6.51483 10.0458C8.08626 9.04418 9.66501 8.0549 11.2426 7.06281C11.3293 7.00823 11.4188 6.95702 11.5122 6.91482C11.5713 6.88837 11.6524 6.8698 11.6952 6.92888C11.7447 6.99754 11.676 7.04649 11.6293 7.09151C11.5888 7.13034 11.5471 7.16804 11.5055 7.20575C10.2267 8.36215 8.9474 9.518 7.66864 10.6744C7.57915 10.7549 7.48684 10.8247 7.47896 10.9687C7.4497 11.5483 7.40861 12.1279 7.3709 12.707Z" fill="#049BE4"/>
</g>
<defs>
<clipPath id="clip0_511_2329">
<rect width="18" height="18" fill="white"/>
</clipPath>
</defs>
</svg>
