<svg width="18" height="18" viewBox="0 0 18 18" fill="none" xmlns="http://www.w3.org/2000/svg">
<g id="viber" clip-path="url(#clip0_511_2323)">
<path id="Vector" d="M8.99297 1.47241e-06C13.9667 -0.00281235 18 4.0277 18 8.99972C18 13.9712 13.9655 18.0028 8.99297 18C4.0232 17.9978 -0.00393646 13.961 2.88764e-06 8.98565C0.00394223 4.02883 4.03333 0.00281529 8.99297 1.47241e-06ZM9.22089 13.2559C9.95079 13.2289 10.6779 13.1715 11.3993 13.0511C12.6841 12.8366 13.9616 11.6678 14.2098 10.4843C14.4619 9.28223 14.494 8.07454 14.3443 6.85559C14.2379 5.99118 13.9301 5.2489 13.3184 4.60679C12.4731 3.71931 11.392 3.5229 10.2564 3.43005C8.99972 3.32706 7.75376 3.39403 6.5078 3.59719C5.3592 3.78403 4.03052 4.99059 3.79078 6.1285C3.5381 7.33 3.51953 8.536 3.65121 9.7572C3.78346 10.9818 4.36649 11.894 5.36708 12.58C5.63158 12.7618 6.06097 12.7635 6.16902 13.0618C6.27763 13.3595 6.19491 13.7275 6.19378 14.0652C6.19266 14.3004 6.27032 14.4872 6.50049 14.5829C6.73516 14.6803 6.91806 14.5852 7.07845 14.418C7.37052 14.1141 7.67498 13.8209 7.94904 13.5018C8.13194 13.2891 8.32047 13.1974 8.6041 13.2491C8.80332 13.2852 9.01492 13.2559 9.22089 13.2559Z" fill="#6F40AA"/>
<path id="Vector_2" d="M8.99337 4.3457C9.80037 4.34852 10.6029 4.41886 11.3952 4.56743C12.3109 4.73908 13.173 5.71209 13.3323 6.71212C13.5214 7.89843 13.5034 9.08023 13.2659 10.2587C13.1212 10.9756 12.1713 11.9002 11.4335 12.0443C10.5849 12.2103 9.72777 12.2869 8.86393 12.2632C8.68835 12.2582 8.56736 12.3111 8.44805 12.436C7.94381 12.965 7.43226 13.4872 6.92015 14.0084C6.85205 14.0776 6.79578 14.2087 6.67703 14.1648C6.54084 14.1147 6.59543 13.9712 6.59431 13.8665C6.5898 13.3325 6.58699 12.7979 6.59543 12.2638C6.59768 12.1192 6.55379 12.0533 6.4131 12.0049C5.87341 11.8192 5.46315 11.4551 5.11086 11.0173C4.86324 10.7094 4.7355 10.3532 4.67303 9.96828C4.47775 8.75439 4.43836 7.53151 4.75294 6.34295C5 5.41045 5.68882 4.80492 6.62076 4.57362C7.39287 4.38228 8.19593 4.34964 8.99337 4.3457ZM11.5202 10.2722C11.5078 10.1439 11.4481 10.0414 11.344 9.96546C11.0874 9.77694 10.8359 9.58222 10.573 9.40326C10.1943 9.14495 10.0452 9.15958 9.76773 9.51244C9.58146 9.74936 9.38055 9.76174 9.12505 9.65425C8.47788 9.38188 8.03554 8.91197 7.75698 8.27604C7.5859 7.88605 7.59603 7.84384 7.92693 7.56359C8.18017 7.34917 8.219 7.16459 8.04173 6.87645C7.89485 6.63784 7.72715 6.41217 7.56507 6.18256C7.24993 5.73742 7.06084 5.75149 6.61457 6.08408C6.46318 6.19663 6.33769 6.33732 6.25046 6.50672C6.16492 6.67217 6.14803 6.841 6.21332 7.02164C6.93815 9.0279 8.29779 10.4067 10.2934 11.1591C10.7599 11.3341 11.5303 10.7753 11.5202 10.2722ZM11.6997 8.24059C11.6294 6.75321 10.6963 5.73066 9.21172 5.53088C9.05921 5.51062 8.81272 5.42846 8.78908 5.65694C8.76489 5.89274 9.01644 5.84322 9.1712 5.85222C10.2044 5.91244 11.0964 6.68117 11.3131 7.68458C11.3671 7.93388 11.3547 8.18657 11.4014 8.43418C11.4189 8.52816 11.4673 8.59682 11.5669 8.58894C11.6671 8.5805 11.7036 8.50509 11.7003 8.40829C11.698 8.35258 11.6997 8.2963 11.6997 8.24059ZM9.28319 6.23659C9.18021 6.24165 9.02319 6.19326 9.01363 6.37447C9.00519 6.53204 9.15094 6.51572 9.25899 6.53598C10.2072 6.71606 10.5849 7.12632 10.6895 8.08696C10.7014 8.19444 10.7132 8.3115 10.8494 8.30531C10.9962 8.29912 11.0109 8.17475 11.0114 8.05657C11.0193 7.12238 10.2157 6.26979 9.28319 6.23659ZM9.43176 6.971C9.36817 6.97831 9.24549 6.93498 9.22523 7.08974C9.21453 7.17415 9.25337 7.24788 9.34003 7.25294C9.77167 7.2777 9.97089 7.52138 10.0086 7.93276C10.0176 8.02899 10.0913 8.08583 10.1842 8.0757C10.2917 8.06388 10.2945 7.97046 10.2979 7.88267C10.3164 7.39926 9.94388 6.99069 9.43176 6.971Z" fill="#6F40AA"/>
</g>
<defs>
<clipPath id="clip0_511_2323">
<rect width="18" height="18" fill="white"/>
</clipPath>
</defs>
</svg>
