<svg width="18" height="18" viewBox="0 0 18 18" fill="none" xmlns="http://www.w3.org/2000/svg">
<g id="whatsapp" clip-path="url(#clip0_511_2326)">
<path id="Vector" d="M8.99887 18C4.03151 17.9994 -0.000562687 13.9662 5.88986e-08 8.99831C0.000562805 4.02983 4.03208 -0.000562687 9.00113 5.89233e-08C13.9702 0.000562805 18.0006 4.03208 18 9.00113C18 13.9685 13.9668 18.0006 8.99887 18ZM8.8762 14.5262C9.43894 14.5307 9.8942 14.4845 10.3416 14.372C13.3472 13.6173 15.1441 10.6185 14.4041 7.59482C13.704 4.73213 10.8182 2.89533 7.94766 3.48396C4.36016 4.22003 2.44401 7.93641 3.93191 11.2808C3.99719 11.4277 4.01463 11.5656 3.98368 11.7147C3.81261 12.5481 3.64322 13.3815 3.46652 14.2133C3.39167 14.565 3.47946 14.6618 3.83905 14.5796C4.67698 14.3889 5.51548 14.1981 6.34947 13.991C6.4834 13.9578 6.58188 13.9809 6.69274 14.0315C7.41868 14.363 8.17895 14.534 8.8762 14.5262Z" fill="#2AA71B"/>
<path id="Vector_2" d="M8.99995 4.58887C11.6606 4.58943 13.7191 6.96309 13.3286 9.58099C13.0337 11.5579 11.4721 13.0503 9.48222 13.2855C8.56551 13.3936 7.71632 13.2056 6.91103 12.7847C6.73039 12.6902 6.56663 12.68 6.37811 12.729C5.96281 12.837 5.54412 12.9321 5.12825 13.0379C4.96787 13.0785 4.93523 13.0447 4.97519 12.8764C5.08549 12.4133 5.16765 11.9434 5.27626 11.4803C5.31846 11.2996 5.22674 11.1719 5.15583 11.0351C4.7529 10.2613 4.57282 9.44424 4.65048 8.57142C4.85138 6.31143 6.73152 4.5883 8.99995 4.58887ZM10.6004 11.6722C11.1328 11.7273 11.5739 11.3384 11.9167 10.7937C12.0815 10.5315 11.9831 10.2664 11.6893 10.1662C11.4158 10.0728 11.1322 10.0104 10.8598 9.91413C10.5424 9.80215 10.2931 9.84604 10.0613 10.1156C9.80186 10.4167 9.6713 10.4217 9.33197 10.2146C8.78442 9.88037 8.31396 9.45268 7.89078 8.97379C7.54018 8.57705 7.53568 8.44762 7.86714 8.03175C8.02696 7.83085 8.05341 7.64345 7.93692 7.41329C7.80242 7.14711 7.69438 6.86743 7.57001 6.59562C7.395 6.21352 7.13051 6.15668 6.81987 6.43017C6.14908 7.02106 5.99826 7.68678 6.3798 8.55679C6.85082 9.63107 7.68369 10.3897 8.63079 11.0363C9.17271 11.406 9.76247 11.6491 10.6004 11.6722Z" fill="#2AA71B"/>
</g>
<defs>
<clipPath id="clip0_511_2326">
<rect width="18" height="18" fill="white"/>
</clipPath>
</defs>
</svg>
