<svg width="17" height="16" viewBox="0 0 17 16" fill="none" xmlns="http://www.w3.org/2000/svg">
<g id="&#209;&#132;&#208;&#177;" clip-path="url(#clip0_754_5825)">
<path id="Vector" d="M14.0477 0.385742H2.9234C1.78977 0.385742 0.871094 1.3044 0.871094 2.43763V13.5621C0.871094 14.6953 1.78977 15.6139 2.92303 15.6139H8.40938L8.4187 10.1721H7.00492C6.82126 10.1721 6.67224 10.0234 6.6715 9.83976L6.66479 8.08552C6.66405 7.90075 6.81381 7.75062 6.99858 7.75062H8.40975V6.05562C8.40975 4.08867 9.61119 3.01765 11.3658 3.01765H12.8057C12.9901 3.01765 13.1391 3.16704 13.1391 3.35144V4.83037C13.1391 5.0144 12.9897 5.16379 12.8057 5.16416L11.922 5.16453C10.968 5.16453 10.7828 5.6179 10.7828 6.28361V7.75099H12.8798C13.0795 7.75099 13.2345 7.92534 13.211 8.12389L13.0031 9.87813C12.9834 10.0461 12.8407 10.1724 12.672 10.1724H10.7925L10.7832 15.6143H14.0477C15.181 15.6143 16.0997 14.6957 16.0997 13.5624V2.43763C16.0997 1.3044 15.181 0.385742 14.0477 0.385742Z" fill="white"/>
</g>
<defs>
<clipPath id="clip0_754_5825">
<rect width="15.2286" height="15.2286" fill="white" transform="translate(0.871094 0.385742)"/>
</clipPath>
</defs>
</svg>
