<svg width="22" height="16" viewBox="0 0 22 16" fill="none" xmlns="http://www.w3.org/2000/svg">
<g id="youtube" clip-path="url(#clip0_754_5827)">
<path id="Vector" d="M20.9262 1.69297C20.144 0.764428 18.6998 0.385742 15.9413 0.385742H5.92888C3.10737 0.385742 1.63862 0.788941 0.859379 1.7775C0.0996094 2.74112 0.0996094 4.16161 0.0996094 6.12689V9.87317C0.0996094 13.6812 1.00117 15.6143 5.92888 15.6143H15.9413C18.3332 15.6143 19.6589 15.28 20.516 14.4605C21.396 13.6207 21.771 12.2484 21.771 9.87317V6.12689C21.771 4.05426 21.7122 2.62574 20.9262 1.69297ZM14.0129 8.51734L9.46615 10.89C9.36457 10.9433 9.25325 10.9695 9.14235 10.9695C9.01664 10.9695 8.89135 10.9357 8.78003 10.8685C8.57094 10.7421 8.44311 10.5156 8.44311 10.2713V5.54111C8.44311 5.29724 8.57051 5.07113 8.77919 4.94434C8.98786 4.81755 9.24775 4.80909 9.46446 4.92152L14.0112 7.279C14.2423 7.39903 14.3879 7.6374 14.3879 7.89733C14.3884 8.15809 14.2436 8.39689 14.0129 8.51734Z" fill="white"/>
</g>
<defs>
<clipPath id="clip0_754_5827">
<rect width="21.6714" height="15.2286" fill="white" transform="translate(0.0996094 0.385742)"/>
</clipPath>
</defs>
</svg>
