<svg width="19" height="20" viewBox="0 0 19 20" fill="none" xmlns="http://www.w3.org/2000/svg">
<g id="icon enter" clip-path="url(#clip0_1_3190)">
<path id="Vector" d="M12.1865 1.63698C11.0203 1.63698 9.85354 1.62904 8.68738 1.64064C8.22959 1.64491 7.94102 1.97077 7.91727 2.46933C7.9048 2.73295 7.92142 2.99779 7.91133 3.26202C7.89351 3.73678 7.5515 4.08095 7.11865 4.07119C6.69173 4.06203 6.35684 3.72946 6.3509 3.26934C6.3414 2.5627 6.26896 1.84323 6.67035 1.20005C7.14121 0.444585 7.80267 0.00888045 8.67907 0.00582929C11.5761 -0.00454463 14.4737 0.000337218 17.3707 0.00949068C18.3367 0.0131521 18.9988 0.713087 18.9994 1.70898C19.0017 6.53591 19.0011 11.3634 18.9994 16.1904C18.9994 17.0014 18.5855 17.5841 17.8427 17.838C16.3209 18.3579 14.799 18.8784 13.2772 19.3977C12.1051 19.7974 11.1094 19.067 11.0921 17.8008C11.0892 17.5701 11.1883 17.2705 11.0494 17.1265C10.9099 16.9818 10.6183 17.0892 10.3939 17.0807C9.68373 17.0526 8.96942 17.1436 8.26224 17.027C7.25581 16.8616 6.41206 15.9152 6.36159 14.8711C6.33131 14.2425 6.33903 13.6109 6.3515 12.9818C6.3604 12.5223 6.70301 12.1982 7.13349 12.2007C7.56397 12.2031 7.8947 12.5284 7.90836 12.9909C7.92201 13.4681 7.91311 13.9459 7.9137 14.4238C7.91489 15.1548 8.19159 15.4447 8.89045 15.4459C9.52341 15.4471 10.1564 15.4343 10.7887 15.452C11.0322 15.4587 11.0999 15.3946 11.0987 15.1377C11.0898 11.4995 11.0927 7.86133 11.0927 4.22313C11.0927 3.99979 11.1046 3.77523 11.091 3.55249C11.0375 2.66461 11.3706 2.02203 12.1865 1.63698Z" fill="#828282"/>
<path id="Vector_2" d="M2.28865 7.31924C2.77316 7.31924 3.25827 7.3113 3.74279 7.32351C3.92151 7.32778 3.9797 7.28323 3.97614 7.08918C3.96426 6.38803 3.96901 5.68626 3.97198 4.9851C3.97376 4.53842 4.13467 4.24917 4.46065 4.13078C4.82582 3.99775 5.12924 4.10576 5.40059 4.38769C6.39515 5.42081 7.39921 6.44417 8.39734 7.47363C8.82604 7.91543 8.82366 8.35541 8.39496 8.79661C7.38199 9.83888 6.37081 10.883 5.35249 11.9198C4.92914 12.3506 4.31043 12.267 4.05273 11.7587C3.97673 11.6092 3.97139 11.4462 3.97139 11.2833C3.97079 10.6127 3.95951 9.9414 3.97732 9.27075C3.98386 9.02361 3.92923 8.94306 3.6751 8.94733C2.74585 8.96381 1.81541 8.96076 0.885572 8.9516C0.218176 8.94489 -0.18915 8.33893 0.0881404 7.77569C0.239551 7.46813 0.497247 7.31985 0.833914 7.31985C1.31902 7.31985 1.80354 7.31985 2.28865 7.31924Z" fill="#828282"/>
</g>
<defs>
<clipPath id="clip0_1_3190">
<rect width="19" height="19.5072" fill="white"/>
</clipPath>
</defs>
</svg>
