<svg width="13" height="14" viewBox="0 0 13 14" fill="none" xmlns="http://www.w3.org/2000/svg">
<g id="Frame" clip-path="url(#clip0_754_5858)">
<path id="Vector" d="M6.50661 13.9512C10.0891 13.9461 13.0051 11.024 13 7.44456C12.9949 3.86207 10.0728 0.946085 6.4934 0.951165C2.91091 0.956245 -0.00507348 3.87832 6.62771e-06 7.45777C0.00508674 11.0403 2.92717 13.9562 6.50661 13.9512ZM6.4995 12.5287C3.70442 12.5287 1.41939 10.2407 1.42142 7.44456C1.42345 4.65761 3.70341 2.37664 6.49035 2.37156C9.28746 2.3675 11.5766 4.6505 11.5786 7.44558C11.5806 10.2427 9.29457 12.5298 6.4995 12.5287Z" fill="#01A0C6"/>
<path id="Vector_2" d="M5.96725 8.6857C5.96725 9.13885 5.96623 9.59199 5.96725 10.0451C5.96826 10.4719 6.17655 10.7218 6.52301 10.7157C6.8583 10.7096 7.06862 10.4536 7.06862 10.0482C7.06862 9.23638 7.07166 8.4256 7.06658 7.6138C7.06557 7.48984 7.0991 7.40348 7.18952 7.31509C7.7717 6.74103 8.34677 6.15987 8.92692 5.58277C9.0966 5.41411 9.15654 5.21192 9.0844 4.99043C9.01735 4.78418 8.8619 4.65514 8.64142 4.62161C8.46361 4.5952 8.30613 4.64803 8.17913 4.77503C7.49433 5.45678 6.81156 6.13955 6.1288 6.82333C6.01805 6.93408 5.96928 7.06921 5.9703 7.22568C5.97233 7.71235 5.97131 8.19903 5.97131 8.6857C5.96928 8.6857 5.96826 8.6857 5.96725 8.6857Z" fill="#01A0C6"/>
</g>
<defs>
<clipPath id="clip0_754_5858">
<rect width="13" height="13" fill="white" transform="matrix(1 0 0 -1 0 13.9512)"/>
</clipPath>
</defs>
</svg>
